# Blender v2.90.1 OBJ File: 'cube.blend'
# www.blender.org
o Cube
v 0.500000 0.000000 0.353500
v 0.000000 0.500000 0.353500
v 0.500000 0.000000 -0.353500
v 0.000000 0.500000 -0.353500
v 0.000000 -0.500000 0.353500
v -0.500000 0.000000 0.353500
v 0.000000 -0.500000 -0.353500
v -0.500000 0.000000 -0.353500
vt 0.333333 1.000000
vt 0.000000 0.999999
vt 0.000000 0.500000
vt 0.333333 0.500000
vt 0.666668 0.999997
vt 0.666668 0.500003
vt 1.000002 0.500003
vt 1.000002 0.999997
vt 0.333333 0.000000
vt 0.666667 0.000000
vt 0.666667 0.500000
vt 0.333333 0.500000
vt 0.333333 1.000000
vt 0.000000 1.000000
vt 0.000000 0.500000
vt 0.333333 0.500000
vt 0.333333 0.500000
vt 0.000000 0.500000
vt 0.000000 0.000000
vt 0.333330 0.000000
vt 0.333333 0.500000
vt 0.666666 0.500000
vt 0.666666 1.000000
vn 0.7071 -0.7071 0.0000
vn 0.0000 0.0000 -1.0000
vn -0.7071 -0.7071 0.0000
vn -0.7071 0.7071 0.0000
vn 0.7071 0.7071 0.0000
vn 0.0000 0.0000 1.0000
s off
f 1/1/1 5/2/1 7/3/1 3/4/1
f 4/5/2 3/6/2 7/7/2 8/8/2
f 8/9/3 7/10/3 5/11/3 6/12/3
f 6/13/4 2/14/4 4/15/4 8/16/4
f 2/17/5 1/18/5 3/19/5 4/20/5
f 6/13/6 5/21/6 1/22/6 2/23/6
